# xmcd
#
# Track frame offsets:
#        150
#        26835
#        49906
#        72681
#        97654
#        126332
#        142922
#        172131
#        179252
#        196592
#        205572
#        228272
#        255872
#        283041
#        313691
#
# Disc length: 4328 seconds
#
# Revision: 0
# Processed by: cddbd v1.5.1PL0 Copyright (c) Steve Scherf et al.
# Submitted via: ExactAudioCopy v0.95a5
#
DISCID=d010e60f
DTITLE=Music For A Harder Generation - Music For A Harder Generation 2
DTITLE=Disc 1
DYEAR=2003
DGENRE=Hard Trance
TTITLE0=PSR Dream Team - History
TTITLE1=Savon - Way To Heaven
TTITLE2=Dave Holmes - Freedom
TTITLE3=Orion's Voice - The Next Life
TTITLE4=Derb - Revolution
TTITLE5=E-Wok - Supersound
TTITLE6=Technoboy - Tales From A Vinyl
TTITLE7=Derb - Underground
TTITLE8=Max B. Grant - Tekknopumpin'
TTITLE9=DJ Machine - I Wanna Rock
TTITLE10=Oliver Vs. PDM - System
TTITLE11=Score Age - Muzak
TTITLE12=Fusion 808 - Take On Me
TTITLE13=Alex G and Fame - Put Your Handz
TTITLE14=Champion Burns - Hell's Reign
EXTD=
EXTT0=
EXTT1=
EXTT2=
EXTT3=
EXTT4=
EXTT5=
EXTT6=
EXTT7=
EXTT8=
EXTT9=
EXTT10=
EXTT11=
EXTT12=
EXTT13=
EXTT14=
PLAYORDER=
